<svg width="1266" height="1117" viewBox="0 0 1266 1117" fill="none" xmlns="http://www.w3.org/2000/svg">
<path fill-rule="evenodd" clip-rule="evenodd" d="M992.482 349.749C1046.08 349.749 1089.53 306.298 1089.53 252.698C1089.53 199.099 1046.08 155.648 992.482 155.648C938.882 155.648 895.431 199.099 895.431 252.698C895.431 306.298 938.882 349.749 992.482 349.749Z" fill="#F2F2F2"/>
<path fill-rule="evenodd" clip-rule="evenodd" d="M992.482 181.284C995.516 181.284 997.975 178.824 997.975 175.79C997.975 172.756 995.516 170.297 992.482 170.297C989.448 170.297 986.988 172.756 986.988 175.79C986.988 178.824 989.448 181.284 992.482 181.284Z" fill="black" fill-opacity="0.1"/>
<path fill-rule="evenodd" clip-rule="evenodd" d="M915.574 258.192C918.608 258.192 921.067 255.733 921.067 252.698C921.067 249.664 918.608 247.205 915.574 247.205C912.539 247.205 910.08 249.664 910.08 252.698C910.08 255.733 912.539 258.192 915.574 258.192Z" fill="black" fill-opacity="0.1"/>
<path fill-rule="evenodd" clip-rule="evenodd" d="M1069.39 258.192C1072.42 258.192 1074.88 255.733 1074.88 252.698C1074.88 249.664 1072.42 247.205 1069.39 247.205C1066.36 247.205 1063.9 249.664 1063.9 252.698C1063.9 255.733 1066.36 258.192 1069.39 258.192Z" fill="black" fill-opacity="0.1"/>
<path fill-rule="evenodd" clip-rule="evenodd" d="M992.482 335.1C995.516 335.1 997.975 332.641 997.975 329.607C997.975 326.572 995.516 324.113 992.482 324.113C989.448 324.113 986.988 326.572 986.988 329.607C986.988 332.641 989.448 335.1 992.482 335.1Z" fill="black" fill-opacity="0.1"/>
<path fill-rule="evenodd" clip-rule="evenodd" d="M992.482 186.777L996.144 250.867H988.82L992.482 186.777Z" fill="#AFB9C5"/>
<path fill-rule="evenodd" clip-rule="evenodd" d="M1024.89 285.106L991.226 256.621L996.404 251.442L1024.89 285.106Z" fill="#AFB9C5"/>
<path fill-rule="evenodd" clip-rule="evenodd" d="M992.482 260.023C996.527 260.023 999.807 256.743 999.807 252.698C999.807 248.653 996.527 245.374 992.482 245.374C988.437 245.374 985.157 248.653 985.157 252.698C985.157 256.743 988.437 260.023 992.482 260.023Z" fill="#C5CFD6"/>
<g opacity="0.345889">
<path fill-rule="evenodd" clip-rule="evenodd" d="M889.56 762.462C876.934 621.374 199.529 349.061 73.7718 482.696C-51.986 616.331 68.9145 867.131 332.456 931.353C595.998 995.577 902.184 903.55 889.56 762.462Z" fill="#F2F2F2"/>
<path fill-rule="evenodd" clip-rule="evenodd" d="M470.868 854.135C482.178 734.275 1088.97 502.934 1201.62 616.463C1314.27 729.991 1285.75 968.785 1049.68 1023.34C813.613 1077.9 459.559 973.995 470.868 854.135Z" fill="#DDE3E9"/>
</g>
<path fill-rule="evenodd" clip-rule="evenodd" d="M107.122 383.942C150.103 383.942 184.946 365.497 184.946 342.741C184.946 319.988 150.103 301.541 107.122 301.541C64.1412 301.541 29.2983 319.988 29.2983 342.741C29.2983 365.497 64.1412 383.942 107.122 383.942Z" fill="#F2F2F2"/>
<path fill-rule="evenodd" clip-rule="evenodd" d="M197.764 371.124C197.764 320.559 157.182 279.567 107.122 279.567C57.0619 279.567 16.4802 320.559 16.4802 371.124" fill="#DDE3E9"/>
<path d="M111.7 0H102.544V292.984H111.7V0Z" fill="#DDE3E9"/>
<g opacity="0.7">
<path fill-rule="evenodd" clip-rule="evenodd" d="M249.036 291.153C281.164 291.153 307.208 276.265 307.208 257.903C307.208 239.54 281.164 224.653 249.036 224.653C216.909 224.653 190.864 239.54 190.864 257.903C190.864 276.265 216.909 291.153 249.036 291.153Z" fill="#F2F2F2"/>
<path fill-rule="evenodd" clip-rule="evenodd" d="M316.789 280.808C316.789 240.001 286.456 206.92 249.036 206.92C211.617 206.92 181.284 240.001 181.284 280.808" fill="#DDE3E9"/>
<path d="M254.529 0H245.374V249.036H254.529V0Z" fill="#DDE3E9"/>
</g>
<path d="M1040.09 428.921L1074.09 394.905C1079.81 389.183 1089.09 389.183 1094.81 394.905L1185.33 485.461C1190.82 490.956 1193.91 498.405 1193.91 506.173V1106.01" stroke="#CBCBCB" stroke-width="8"/>
<path d="M1241.52 1104.18H1144.47C1141.43 1104.18 1138.97 1106.64 1138.97 1109.68V1111.51C1138.97 1114.54 1141.43 1117 1144.47 1117H1241.52C1244.55 1117 1247.01 1114.54 1247.01 1111.51V1109.68C1247.01 1106.64 1244.55 1104.18 1241.52 1104.18Z" fill="#AFB9C5"/>
<path d="M975.084 408.959C998.682 385.36 1036.94 385.36 1060.54 408.959C1084.14 432.557 1084.14 470.817 1060.54 494.417L1024.29 530.672L938.829 445.214L975.084 408.959Z" fill="#C5CFD6"/>
<path fill-rule="evenodd" clip-rule="evenodd" d="M974.588 495.375C998.186 518.973 1021.08 534.336 1025.73 529.687C1030.38 525.04 1015.02 502.141 991.419 478.543C967.821 454.943 944.923 439.582 940.274 444.229C935.626 448.878 950.99 471.777 974.588 495.375Z" fill="#F2F2F2"/>
<path fill-rule="evenodd" clip-rule="evenodd" d="M86.5362 681.504C91.7815 680.863 97.3801 681.09 102.258 683.159C112.631 687.563 115.579 699.817 115.437 709.778C115.284 720.498 113.007 732.208 121.158 740.846C124.905 744.815 129.565 747.855 133.244 751.9C137.175 756.222 140.259 761.166 142.543 766.476C146.737 776.229 148.795 787.699 144.96 797.93C141.584 806.939 133.09 815.069 134.925 825.313C136.84 835.998 147.613 844.166 154.347 852.126C161.97 861.132 168.989 872.644 170.143 884.455C171.247 895.775 166.319 907.224 158.758 915.781C143.649 932.88 120.938 941.261 98.0387 941.21C88.3161 941.188 77.3083 940.748 68.918 935.524C66.3247 933.909 64.9567 932.096 63.4152 929.578C62.0331 927.319 60.2072 925.85 58.0939 924.252C53.4508 920.741 50.0976 916.011 47.9578 910.716C39.6482 890.146 46.2898 864.701 57.9212 846.435C60.6775 842.108 62.9338 837.942 61.5949 832.786C60.1977 827.4 56.7636 822.544 53.7262 817.917C50.7246 813.341 47.2982 808.977 44.9523 804.033C42.4953 798.851 41.8035 793.425 42.2374 787.756C43.0534 777.104 47.6512 767.275 54.161 758.71C60.4308 750.459 67.7928 742.563 67.8092 731.754C67.8274 720.295 60.1671 710.102 63.4306 698.453C64.7818 693.629 67.4959 688.68 71.8698 685.788C76.0644 683.014 81.6029 682.106 86.5362 681.504Z" fill="#DDE3E9"/>
<path fill-rule="evenodd" clip-rule="evenodd" d="M83.1086 699.821C83.207 698.283 85.0323 697.36 86.4693 697.761C88.3609 698.29 88.3245 700.057 88.2745 701.632C88.1214 706.472 88.822 711.176 89.9855 715.873C92.4035 725.636 96.8725 734.631 100.413 744.01C103.95 753.38 105.611 763.056 103.536 772.971C101.579 782.321 98.506 791.428 96.504 800.788C94.7394 809.04 92.8615 817.741 95.5489 825.97C98.1349 833.892 103.852 840.343 107.969 847.501C116.491 862.32 120.272 878.761 120.778 895.678C121.012 903.534 120.801 911.463 118.978 919.168C117.929 923.605 116.52 929.6 112.718 932.664C110.965 934.078 107.966 934.565 106.491 932.474C105.105 930.512 106.321 927.475 106.76 925.383C108.665 916.33 109.048 907.079 108.592 897.889C108.151 888.986 107.099 880.097 104.297 871.593C101.696 863.703 97.745 856.615 93.095 849.711C88.3565 842.678 83.4306 835.628 81.4727 827.292C79.4835 818.827 81.0995 810.213 83.2604 801.909C85.5457 793.127 88.5391 784.596 91.6336 776.05C94.6493 767.723 95.7183 759.844 94.0534 751.13C90.7647 733.913 81.9616 717.751 83.1086 699.821Z" fill="#C5CFD6"/>
<path fill-rule="evenodd" clip-rule="evenodd" d="M225.033 702.395C231.525 704.367 237.972 707.546 242.599 712.532C252.438 723.137 249.419 739.163 243.987 750.867C238.141 763.466 229.282 776.13 234.277 790.585C236.571 797.23 240.431 803.249 242.609 809.946C244.936 817.102 245.939 824.555 245.811 832.022C245.575 845.737 241.927 860.374 232.021 870.478C223.299 879.376 209.04 884.572 205.779 897.639C202.375 911.272 210.694 926.539 214.387 939.454C218.566 954.072 220.714 971.338 215.823 985.906C211.137 999.869 199.306 1010.84 185.913 1017.03C159.154 1029.39 128.086 1027.49 101.255 1015.51C89.8631 1010.43 77.1839 1004.18 70.1045 993.641C67.9166 990.382 67.2697 987.527 66.7929 983.747C66.3655 980.356 65.0005 977.67 63.3664 974.679C59.7759 968.113 58.3436 960.774 58.6329 953.398C59.7585 924.75 80.9982 898.112 104.295 882.562C109.815 878.877 114.663 875.127 115.819 868.33C117.026 861.234 115.565 853.705 114.449 846.651C113.346 839.68 111.634 832.738 111.496 825.668C111.353 818.263 113.409 811.486 116.915 805.007C123.502 792.835 134.09 783.603 146.253 776.859C157.968 770.364 170.776 764.856 176.51 752.08C182.587 738.538 178.989 722.499 188.974 710.419C193.109 705.418 198.908 700.976 205.568 699.832C211.953 698.735 218.928 700.542 225.033 702.395Z" fill="#DDE3E9"/>
<path fill-rule="evenodd" clip-rule="evenodd" d="M211.774 724.788C212.695 723.017 215.314 722.88 216.784 724.109C218.718 725.728 217.749 727.8 216.866 729.639C214.153 735.292 212.508 741.228 211.41 747.399C209.124 760.23 209.639 773.224 208.866 786.186C208.095 799.138 204.969 811.467 197.35 822.121C190.165 832.168 181.802 841.342 174.558 851.379C168.174 860.223 161.421 869.544 160.255 880.698C159.129 891.434 162.436 902.071 163.499 912.706C165.704 934.722 161.514 956.172 153.246 976.472C149.405 985.899 145.006 995.177 138.84 1003.35C135.29 1008.05 130.501 1014.41 124.451 1016.05C121.661 1016.8 117.899 1015.81 117.269 1012.56C116.677 1009.51 119.689 1006.55 121.298 1004.3C128.266 994.58 133.559 983.826 137.84 972.702C141.987 961.927 145.412 950.851 146.589 939.311C147.68 928.604 146.772 918.139 144.95 907.527C143.094 896.715 141.026 885.783 143.102 874.887C145.209 863.818 151.61 854.464 158.486 845.763C165.757 836.56 173.726 828.026 181.82 819.528C189.707 811.248 195.083 802.478 197.702 791.286C202.873 769.171 201.043 745.42 211.774 724.788Z" fill="#C5CFD6"/>
<path fill-rule="evenodd" clip-rule="evenodd" d="M24.3652 783.731C35.1586 783.731 44.6476 789.451 51.1862 797.571C58.8402 807.074 60.3861 818.68 63.4941 830.008C65.0407 835.644 67.7006 841.24 72.3622 845.071C76.6018 848.554 81.9843 849.249 87.0591 850.952C97.2013 854.353 105.391 862.545 108.625 872.54C112.571 884.733 108.392 897.03 109.111 909.388C109.772 920.736 120.961 927.815 129.963 933.255C138.84 938.62 146.837 943.641 149.511 954.092C152.346 965.176 153.297 977.547 149.37 988.495C142.832 1006.73 123.699 1014.75 105.211 1016C88.4319 1017.13 67.3347 1015.35 54.7342 1003.18C47.1941 995.888 44.4637 985.694 44.8025 975.553C45.0129 969.246 46.2621 962.998 47.8771 956.904C49.0218 952.587 50.5684 948.285 51.009 943.823C52.1802 931.948 41.2055 929.668 31.8638 926.407C19.993 922.265 11.6825 914.438 5.90359 903.534C0.521852 893.382 -1.73614 881.987 1.48998 870.809C3.13764 865.102 6.12626 859.925 10.1793 855.521C11.9636 853.582 14.4781 851.965 16.0886 849.929C17.5916 848.026 17.2644 845.561 16.7464 843.335C14.3512 833.046 6.88875 824.525 4.21985 814.253C1.81043 804.981 3.23469 793.443 11.7109 787.463C15.373 784.879 19.8892 783.76 24.3652 783.731Z" fill="#C5CFD6"/>
<path fill-rule="evenodd" clip-rule="evenodd" d="M39.0725 810.541C50.5122 822.727 53.6217 839.261 54.5344 855.285C55.0454 864.27 54.5135 873.748 57.1534 882.465C59.4123 889.925 64.7078 895.627 70.1665 901.018C81.1543 911.866 93.4083 922.896 96.6222 938.598C98.5079 947.813 97.2351 957.331 99.8408 966.443C102.21 974.727 106.382 982.865 111.456 989.86C115.541 995.494 120.863 999.806 125.329 1005.06C126.692 1006.66 128.643 1009.02 128.081 1011.28C127.423 1013.93 124.048 1014.77 121.653 1014.35C116.069 1013.38 111.369 1008.05 107.718 1004.18C102.379 998.508 97.8425 992.412 94.1553 985.573C90.0617 977.979 86.7658 969.92 85.3575 961.4C83.8961 952.561 84.6234 943.349 81.2863 934.865C75.6707 920.591 62.0503 912.168 52.2028 901.042C39.9332 887.18 41.763 869.927 43.0197 852.873C43.7101 843.502 44.3964 832.919 39.661 824.362C37.8535 821.097 33.8233 818.052 33.0462 814.339C32.3343 810.938 36.2196 807.501 39.0725 810.541Z" fill="#AFB9C5"/>
<path fill-rule="evenodd" clip-rule="evenodd" d="M51.2729 1010.79C51.2729 1080.48 62.6458 1117 122.687 1117C182.728 1117 194.102 1080.48 194.102 1010.79H51.2729Z" fill="#89C5CC"/>
<path d="M364.398 910.08H302.139C300.117 910.08 298.477 911.72 298.477 913.743V922.898C298.477 924.921 300.117 926.561 302.139 926.561H364.398C366.421 926.561 368.061 924.921 368.061 922.898V913.743C368.061 911.72 366.421 910.08 364.398 910.08Z" fill="#AFB9C5"/>
<path fill-rule="evenodd" clip-rule="evenodd" d="M330.004 776.406H333.269H335.1H338.365C339.313 804.641 343.719 831.497 351.58 856.977H363.483C379.157 856.977 391.866 869.685 391.866 885.36C391.866 901.034 379.157 913.743 363.483 913.743H303.055C287.38 913.743 274.672 901.034 274.672 885.36C274.672 869.685 287.38 856.977 303.055 856.977H316.789C328.581 818.757 330.004 776.406 330.004 776.406Z" fill="#DDE3E9"/>
<path fill-rule="evenodd" clip-rule="evenodd" d="M268.487 649.469C268.487 649.469 299.962 646.395 331.438 646.395C362.913 646.395 394.389 649.469 394.389 649.469L402.852 794.961C402.852 794.961 367.145 798.38 331.438 798.38C295.73 798.38 260.023 794.961 260.023 794.961L268.487 649.469Z" fill="#C5CFD6"/>
<path fill-rule="evenodd" clip-rule="evenodd" d="M217.906 1117V966.846V926.561H256.361H408.346H446.8V966.846V1117H408.346V966.846H256.361V1117H217.906Z" fill="#F2F2F2"/>
<path fill-rule="evenodd" clip-rule="evenodd" d="M984.024 600.997C1000.2 639.431 1027.69 666.137 1042.26 706.1C1050.89 729.798 1054.49 755.568 1054.71 781.959C1054.83 796.293 1054.58 810.638 1054.51 824.972C1054.45 838.951 1054.07 852.84 1052.88 866.731C1051.69 880.694 1050.35 894.492 1049.76 908.54C1049.3 919.487 1049.1 932.221 1045.39 942.206C1042.43 950.148 1034.93 951.31 1032.94 941.678C1031.84 936.326 1031.98 930.347 1032.1 924.845C1032.26 917.786 1032.67 910.738 1032.88 903.679C1033.72 875.354 1032.63 847.027 1033.2 818.691C1033.75 791.006 1037.31 763.352 1033.37 735.852C1030.12 713.144 1021.86 693.642 1012.37 674.948C1003.24 656.963 993.297 639.413 987.126 618.953C985.353 613.079 983.983 606.991 983.326 600.671C983.614 600.538 983.846 600.646 984.024 600.997Z" fill="#C1DEE2"/>
<path fill-rule="evenodd" clip-rule="evenodd" d="M979.616 676.823C982.819 679.136 984.608 682.52 986.772 685.858C989.464 690.007 992.63 693.754 995.322 697.907C1000.93 706.567 1005.86 715.757 1010.98 724.766C1020.69 741.866 1028.07 760.093 1031.72 779.876C1035.5 800.38 1036.52 821.541 1038.11 842.35C1039.8 864.404 1041.49 886.62 1041.72 908.76C1041.82 918.679 1042.35 929.208 1041.16 939.058C1040.42 945.189 1037.65 950.415 1031.41 950.365C1018.16 950.259 1011.94 935.583 1009.34 923.546C1005.52 905.821 1004.75 886.995 1005.36 868.868C1006.09 847.012 1009.89 825.485 1011.53 803.713C1013.27 780.664 1012.28 758.022 1004.36 736.321C1000.36 725.354 995.71 714.649 991.537 703.756C989.761 699.117 988.305 694.353 985.906 690.033C983.236 685.23 979.924 680.868 977.833 675.693C978.426 676.071 979.021 676.446 979.616 676.823Z" fill="#89C5CC"/>
<path fill-rule="evenodd" clip-rule="evenodd" d="M1132.26 630.863C1132.67 630.546 1133.07 630.231 1133.48 629.915C1132.31 634.846 1130.2 638.851 1128.58 643.357C1127.13 647.409 1126.39 651.995 1125.41 656.424C1123.12 666.827 1120.46 676.995 1118.29 687.486C1114 708.246 1114.81 730.609 1117.63 753.642C1120.29 775.399 1124.49 797.122 1126.5 818.874C1128.16 836.913 1128.87 855.516 1127.29 872.727C1126.21 884.415 1122.68 898.372 1113.06 897.193C1108.53 896.638 1106.17 891.185 1105.21 885.03C1103.69 875.146 1103.37 864.752 1102.77 854.922C1101.44 832.982 1101.18 811.109 1100.91 789.393C1100.66 768.906 1099.98 748.013 1101.35 728.04C1102.67 708.769 1106.8 691.405 1112.7 675.382C1115.81 666.94 1118.78 658.301 1122.27 650.255C1123.95 646.397 1125.99 642.987 1127.67 639.131C1129.02 636.029 1130.09 632.846 1132.26 630.863Z" fill="#C1DEE2"/>
<path fill-rule="evenodd" clip-rule="evenodd" d="M983.709 740.336C985.461 737.394 989.318 747.095 989.905 748.317C989.656 747.709 989.407 747.103 989.156 746.498C992.634 752.281 995.816 758.302 997.794 764.932C999.751 771.497 1001.43 778.195 1003.27 784.806C1006.72 797.21 1011.16 809.263 1014.29 821.779C1017.33 833.974 1018.1 845.964 1017.36 858.579C1016.59 871.69 1016.12 885.004 1017.02 898.108C1017.44 904.367 1019.48 910.197 1020.87 916.222C1022.27 922.254 1023.37 928.366 1025.02 934.323C1025.39 933.546 1025.44 936.141 1025.44 936.337C1025.43 937.826 1025.22 939.073 1024.74 940.485C1023.52 944.114 1021.21 947.196 1017.71 948.197C1011.38 950.005 1005.5 944.247 1003.46 938.168C1000.54 929.444 998.922 919.805 997.527 910.637C996.248 902.23 995.944 893.772 996.325 885.25C997.074 868.442 1000.12 851.853 1000.94 835.051C1001.83 816.758 998.21 799.569 995.175 781.762C993.714 773.182 992.317 764.683 989.471 756.509C988.32 753.198 986.818 750.278 985.245 747.22C984.348 745.482 982.537 742.38 983.709 740.336Z" fill="#C1DEE2"/>
<path fill-rule="evenodd" clip-rule="evenodd" d="M1035.06 711.761C1034.33 732.719 1033.08 753.517 1030.29 774.253C1027.44 795.414 1024.16 816.503 1021.42 837.682C1018.75 858.299 1015.95 879.258 1016.32 900.164C1016.59 915.561 1014.04 941.611 1031.14 949.21C1048.46 956.906 1052.18 924.039 1053.32 913.191C1055.5 892.378 1054.79 871.346 1053.73 850.42C1052.65 828.94 1050.83 807.573 1048.59 786.174C1046.09 762.404 1044.13 738.527 1042.56 714.689C1041.79 702.899 1041.59 691.128 1041.81 679.334C1042.01 668.206 1041.59 656.961 1037.63 646.395C1037.42 646.545 1037.22 646.695 1037.01 646.845" fill="#69A1AC"/>
<path fill-rule="evenodd" clip-rule="evenodd" d="M1124.48 778.155C1121.36 782.693 1118.22 787.186 1115.28 791.993C1110.02 800.594 1105.26 810.158 1103.82 822.454C1100.83 848.187 1103.23 875.982 1103.81 902.505C1103.93 907.923 1103.25 913.18 1105.38 918.339C1107.32 923.015 1110.94 926.579 1114.39 926.561C1121.78 926.518 1120.65 908.423 1120.67 900.459C1120.69 886.501 1119.12 872.399 1119.26 858.453C1119.39 844.635 1120.23 830.781 1122.24 817.659C1124.26 804.377 1127.23 791.621 1131.15 779.721C1131.7 778.069 1135.6 765.304 1131.91 767.505" fill="#89C5CC"/>
<path fill-rule="evenodd" clip-rule="evenodd" d="M1091.84 640.902C1086.99 640.902 1087.01 665.12 1086.87 668.231C1086.34 679.456 1086.47 690.687 1086.13 701.914C1085.4 726.418 1084.5 751.137 1080.82 775.355C1078.84 788.395 1076.54 801.376 1074.07 814.315C1071.59 827.292 1068.27 840.253 1066.64 853.395C1065.07 866.028 1065.96 878.909 1066.17 891.604C1066.39 904.376 1066.77 917.174 1068.45 929.835C1068.86 932.959 1069.34 936.073 1069.86 939.179C1070.29 941.768 1070.04 944.978 1070.77 947.437C1071.94 951.376 1076.96 952.665 1080.34 952.05C1089.48 950.382 1095.32 938.902 1098.44 930.516C1102.43 919.805 1104.55 908.189 1106.63 896.903C1109 884.116 1110.39 871.135 1111.04 858.118C1112.36 831.661 1110.66 805.177 1108.77 778.805C1107.71 764.14 1106.49 749.538 1104.63 734.962C1102.78 720.448 1100.39 705.999 1098.85 691.443C1097.72 680.866 1096.61 670.273 1095.88 659.654C1095.71 657.124 1095.56 640.902 1091.84 640.902Z" fill="#69A1AC"/>
<path fill-rule="evenodd" clip-rule="evenodd" d="M1085.76 816.946C1084.97 791.519 1074.75 679.83 1072.42 649.081C1071.84 641.385 1066.24 609.342 1065.52 600.616C1063.55 603.083 1063.72 641.467 1063.74 650.288C1063.76 659.013 1062.68 667.592 1062.12 676.27C1061.55 685.126 1048.46 799.481 1046.77 807.988C1043.39 824.915 1041.12 842.284 1039.38 859.592C1037.68 876.458 1035.04 894.255 1037.31 911.212C1037.83 915.116 1038.66 918.958 1040.01 922.543C1041.46 926.418 1042.46 930.001 1043.63 934.055C1045.51 940.585 1048.91 946.317 1054.13 949.014C1064.84 954.542 1070.59 942.028 1073.51 931.133C1078.17 913.733 1081.16 896.05 1082.56 877.777C1084.11 857.559 1086.4 837.301 1085.76 816.946Z" fill="#89C5CC"/>
<path d="M1135.31 891.769H976.002C973.979 891.769 972.339 893.408 972.339 895.431V1054.74C972.339 1056.76 973.979 1058.4 976.002 1058.4H1135.31C1137.33 1058.4 1138.97 1056.76 1138.97 1054.74V895.431C1138.97 893.408 1137.33 891.769 1135.31 891.769Z" fill="white"/>
<path d="M968.677 910.08H957.69C955.667 910.08 954.028 911.72 954.028 913.742V1113.34C954.028 1115.36 955.667 1117 957.69 1117H968.677C970.7 1117 972.339 1115.36 972.339 1113.34V913.742C972.339 911.72 970.7 910.08 968.677 910.08Z" fill="#C5CFD6"/>
<path d="M1060.23 910.08H1049.25C1047.22 910.08 1045.59 911.72 1045.59 913.742V1113.34C1045.59 1115.36 1047.22 1117 1049.25 1117H1060.23C1062.26 1117 1063.9 1115.36 1063.9 1113.34V913.742C1063.9 911.72 1062.26 910.08 1060.23 910.08Z" fill="#C5CFD6"/>
<path d="M1153.62 910.08H1142.64C1140.61 910.08 1138.97 911.72 1138.97 913.742V1113.34C1138.97 1115.36 1140.61 1117 1142.64 1117H1153.62C1155.65 1117 1157.29 1115.36 1157.29 1113.34V913.742C1157.29 911.72 1155.65 910.08 1153.62 910.08Z" fill="#C5CFD6"/>
</svg>
