<svg width="20" height="20" viewBox="0 0 20 20" fill="none" xmlns="http://www.w3.org/2000/svg">
<path fill-rule="evenodd" clip-rule="evenodd" d="M19.728 17.2913L15.8332 13.3971L15 12.5C16.0782 11.1212 16.2512 10.0107 16.2512 8.12421C16.2512 3.63636 12.6142 0 8.1256 0C3.63699 0 0 3.63636 0 8.12421C0 12.6121 3.63699 16.2484 8.1256 16.2484C10.0125 16.2484 11.121 16.078 12.5 15L13.3994 15.8305L17.2942 19.7246C17.6614 20.0918 18.2552 20.0918 18.6185 19.7246L19.7241 18.6193C20.0913 18.2521 20.0913 17.6584 19.728 17.2913ZM3.12523 8.12421C3.12523 10.8896 5.36367 13.1237 8.1256 13.1237C10.8914 13.1237 13.126 10.8857 13.126 8.12421C13.126 5.35885 10.8875 3.12469 8.1256 3.12469C5.35977 3.12469 3.12523 5.36276 3.12523 8.12421Z" fill="#8E8E93"/>
</svg>
